<svg viewBox="0 0 56.693 56.693" xml:space="preserve" xmlns="http://www.w3.org/2000/svg" enable-background="new 0 0 56.6934 56.6934"><path d="M28.347 4.042c-13.615 0-24.651 11.037-24.651 24.651s11.036 24.651 24.65 24.651c13.615 0 24.652-11.036 24.652-24.65S41.96 4.041 28.347 4.041zM42.87 31.826c.061.364.096.734.096 1.11 0 5.42-6.571 9.83-14.648 9.83-8.078 0-14.648-4.41-14.648-9.83 0-.387.037-.767.102-1.142a3.755 3.755 0 0 1-1.727-3.151 3.76 3.76 0 0 1 3.755-3.756c.91 0 1.77.326 2.452.916 2.494-1.586 5.819-2.582 9.483-2.68l2.635-9.001 6.618 1.23h.002a2.367 2.367 0 0 1 4.435 1.035c.066 1.307-.943 2.424-2.25 2.49s-2.424-.942-2.49-2.248c-.003-.045.006-.088.006-.133l-5.49-1.02-2.237 7.65c3.655.108 6.969 1.109 9.452 2.698a3.727 3.727 0 0 1 2.475-.936 3.76 3.76 0 0 1 3.756 3.755c0 1.3-.68 2.5-1.777 3.183z" fill="#635854" class="fill-000000"></path><path d="M32.91 36.622c-.014.013-1.418 1.396-4.618 1.396-3.146 0-4.402-1.336-4.436-1.372a.59.59 0 0 0-.893.77c.062.073 1.567 1.781 5.329 1.781 3.742 0 5.398-1.684 5.467-1.756a.59.59 0 0 0-.85-.819z" fill="#635854" class="fill-000000"></path><circle cx="33.3" cy="31.199" r="2.308" fill="#635854" class="fill-000000"></circle><circle cx="23.665" cy="31.199" r="2.308" fill="#635854" class="fill-000000"></circle></svg>